<?xml version="1.0" standalone="no"?>
<!DOCTYPE svg PUBLIC "-//W3C//DTD SVG 1.1//EN" "http://www.w3.org/Graphics/SVG/1.1/DTD/svg11.dtd" >
<!--
2013-9-30: Created.
-->
<svg>
<metadata>
Created by iconfont
</metadata>
<defs>

<font id="iconfont" horiz-adv-x="1024" >
  <font-face
    font-family="iconfont"
    font-weight="500"
    font-stretch="normal"
    units-per-em="1024"
    ascent="896"
    descent="-128"
  />
    <missing-glyph />
    
    <glyph glyph-name="gengduo1" unicode="&#58993;" d="M384 896H96A96.1 96.1 0 0 1 0 800v-288A96.1125 96.1125 0 0 1 96 416h288a96.1125 96.1125 0 0 1 96 96V800A96.1 96.1 0 0 1 384 896z m32-384a32.0375 32.0375 0 0 0-32-32H96a32.0375 32.0375 0 0 0-32 32V800a32.0375 32.0375 0 0 0 32 32h288a32.025 32.025 0 0 0 32-32zM928 896H640a96.1 96.1 0 0 1-96-96v-288A96.1 96.1 0 0 1 640 416h288a96.1 96.1 0 0 1 96 96V800A96.1 96.1 0 0 1 928 896z m0-416H640a32.025 32.025 0 0 0-32 32V800A32.025 32.025 0 0 0 640 832h288A32.025 32.025 0 0 0 960 800v-288a32.025 32.025 0 0 0-32-32zM384 352H96A96.1125 96.1125 0 0 1 0 256v-288a96.1125 96.1125 0 0 1 96-96h288a96.1125 96.1125 0 0 1 96 96V256a96.1 96.1 0 0 1-96 96z m32-384a32.0375 32.0375 0 0 0-32-32H96a32.0375 32.0375 0 0 0-32 32V256a32.0375 32.0375 0 0 0 32 32h288a32.025 32.025 0 0 0 32-32zM928 352H640a96.1 96.1 0 0 1-96-96v-288a96.1 96.1 0 0 1 96-96h288a96.1 96.1 0 0 1 96 96V256a96.1 96.1 0 0 1-96 96zM960-31.9875a32.025 32.025 0 0 0-32-32H640a32.0375 32.0375 0 0 0-32 32V256a32.025 32.025 0 0 0 32 32h288A32.025 32.025 0 0 0 960 256z"  horiz-adv-x="1024" />

    
    <glyph glyph-name="search" unicode="&#58955;" d="M749.548 168.381l0.028 0.166 0.245 0.423 0.103-0.315zM724.868 180.809l0.025 0.148 0.219 0.379 0.092-0.282zM899.988-73.789l-209.021 209.021c53.823 58.739 86.688 136.994 86.688 222.942 0 182.322-147.802 330.125-330.126 330.125s-330.125-147.801-330.125-330.125 147.801-330.125 330.125-330.125c80.134 0 153.585 28.569 210.763 76.054l209.794-209.793c8.809-8.81 23.092-8.81 31.901 0 8.81 8.809 8.81 23.092 0 31.902zM159.89 358.173c0 158.859 128.781 287.639 287.639 287.639 158.859 0 287.639-128.781 287.639-287.639s-128.779-287.639-287.638-287.639c-158.859 0-287.64 128.781-287.64 287.639z"  horiz-adv-x="1024" />

    
    <glyph glyph-name="random" unicode="&#58973;" d="M512 761.966222C257.265778 761.966222 50.033778 554.734222 50.033778 300c0-254.72 207.232-461.966222 461.966222-461.966222S973.966222 45.28 973.966222 300C973.966222 554.734222 766.734222 761.966222 512 761.966222zM512-105.077333C288.64-105.077333 106.922667 76.64 106.922667 300S288.64 705.077333 512 705.077333 917.077333 523.36 917.077333 300 735.36-105.077333 512-105.077333zM606.520889 645.045333c-7.480889 2.019556-15.388444-2.389333-17.479111-9.969778-2.076444-7.594667 2.389333-15.402667 9.969778-17.479111C741.617778 578.613333 841.216 448.010667 841.216 300c0-7.864889 6.357333-14.222222 14.222222-14.222222s14.222222 6.357333 14.222222 14.222222C869.660444 460.796444 761.457778 602.677333 606.520889 645.045333zM512 629.230222c6.158222 0 12.273778-0.170667 18.389333-0.497778 0.284444-0.028444 0.526222-0.028444 0.810667-0.028444 7.480889 0 13.752889 5.873778 14.165333 13.44 0.426667 7.850667-5.575111 14.563556-13.411556 14.976-6.613333 0.355556-13.255111 0.554667-19.939556 0.554667-7.864889 0-14.222222-6.357333-14.222222-14.222222C497.777778 635.587556 504.135111 629.230222 512 629.230222zM596.579556 372.376889l0.668444-51.328c0.256-17.052444 13.838222-29.909333 31.672889-29.909333 6.556444 0 13.084444 1.792 19.057778 5.333333l106.552889 65.891556c9.841778 5.859556 15.445333 14.805333 15.303111 24.576-0.128 10.396444-6.599111 19.939556-17.393778 25.984l-106.197333 63.459556c-13.639111 7.608889-32.142222 5.390222-42.311111-4.949333-5.518222-5.589333-8.490667-13.098667-8.362667-21.105778l0.64-49.521778c-27.960889-1.038222-87.523556-13.169778-137.187556-90.154667-21.859556 56.32-53.930667 94.222222-95.672889 112.497778-62.478222 27.320889-122.453333 0.099556-124.984889-1.066667-7.111111-3.313778-10.197333-11.776-6.897778-18.901333 3.313778-7.111111 11.733333-10.211556 18.901333-6.897778 0.512 0.256 50.730667 23.054222 101.589333 0.810667 38.784-16.967111 68.138667-55.779556 87.267556-115.328 0.426667-1.336889 0.938667-2.488889 1.379556-3.811556-0.199111-0.412444-0.412444-0.810667-0.625778-1.223111-75.733333-155.534222-186.040889-117.688889-190.620444-115.996444-7.338667 2.673778-15.559111-0.995556-18.304-8.362667-2.730667-7.367111 0.995556-15.559111 8.362667-18.304 0.483556-0.170667 18.019556-6.385778 44.387556-6.385778 45.041778 0 115.811556 18.232889 170.993778 116.067556 40.163556-78.094222 105.6-88.675556 138.140444-88.675556 1.194667 0 2.133333 0.056889 3.242667 0.085333l-0.625778-48.867556c-0.128-8.021333 2.844444-15.544889 8.362667-21.134222 6.058667-6.144 14.833778-9.671111 24.135111-9.671111 6.328889 0 12.629333 1.635556 18.517333 4.920889l105.500444 63.061333c11.121778 6.243556 17.592889 15.772444 17.720889 26.197333 0.128 9.756444-5.461333 18.716444-15.104 24.448l-106.979556 66.133333c-5.731556 3.413333-12.259556 5.219556-18.816 5.219556-17.834667 0-31.416889-12.856889-31.672889-29.937778l-0.682667-52.309333c-25.329778-1.422222-90.282667 4.352-124.913778 92.416C516.792889 359.420444 573.112889 371.409778 596.579556 372.376889zM628.081778 452.647111c1.052444 0 2.673778-0.199111 3.911111-0.881778l106.168889-63.445333c0.867556-0.483556 1.521778-0.952889 2.048-1.351111-0.142222-0.099556-0.298667-0.184889-0.426667-0.284444l-106.581333-65.891556c-5.248-3.143111-7.466667-1.194667-7.495111 0.625778l-1.479111 130.062222C624.782222 452.049778 626.190222 452.647111 628.081778 452.647111zM625.692444 235.132444c0.014222 1.223111 1.109333 1.863111 3.228444 1.863111 0.995556 0 2.588444-0.227556 4.081778-1.137778l106.965333-66.119111c0.085333-0.056889 0.170667-0.085333 0.241778-0.142222-0.568889-0.440889-1.336889-0.952889-2.360889-1.536l-105.472-63.047111c-4.536889-2.488889-7.210667-1.265778-8.348444 0.881778L625.692444 235.132444z"  horiz-adv-x="1024" />

    
    <glyph glyph-name="caidan1" unicode="&#59343;" d="M158.449243 87.870672l-70.709435 0c-39.056528 0-70.710458-31.653931-70.710458-70.710458 0-39.055504 31.653931-70.710458 70.710458-70.710458l70.709435 0c39.056528 0 70.710458 31.654954 70.710458 70.710458C229.159702 56.216741 197.505771 87.870672 158.449243 87.870672zM158.449243 370.710458l-70.709435 0c-39.056528 0-70.710458-31.653931-70.710458-70.710458 0-39.055504 31.653931-70.709435 70.710458-70.709435l70.709435 0c39.056528 0 70.710458 31.653931 70.710458 70.709435C229.159702 339.056528 197.505771 370.710458 158.449243 370.710458zM158.449243 653.550245l-70.709435 0c-39.056528 0-70.710458-31.653931-70.710458-70.710458s31.653931-70.710458 70.710458-70.710458l70.709435 0c39.056528 0 70.710458 31.653931 70.710458 70.710458S197.505771 653.550245 158.449243 653.550245zM441.28903 512.130352l494.969115 0c39.056528 0 70.710458 31.653931 70.710458 70.710458s-31.653931 70.710458-70.710458 70.710458L441.28903 653.551268c-39.056528 0-70.709435-31.653931-70.709435-70.710458S402.233526 512.130352 441.28903 512.130352zM936.259168 370.710458 441.28903 370.710458c-39.056528 0-70.709435-31.653931-70.709435-70.710458 0-39.055504 31.653931-70.709435 70.709435-70.709435l494.969115 0c39.056528 0 70.710458 31.653931 70.710458 70.709435C1006.968603 339.056528 975.315696 370.710458 936.259168 370.710458zM936.259168 87.870672 441.28903 87.870672c-39.056528 0-70.709435-31.653931-70.709435-70.710458 0-39.055504 31.653931-70.710458 70.709435-70.710458l494.969115 0c39.056528 0 70.710458 31.654954 70.710458 70.710458C1006.968603 56.216741 975.315696 87.870672 936.259168 87.870672z"  horiz-adv-x="1024" />

    
    <glyph glyph-name="yonghu" unicode="&#58927;" d="M514.214 886C236.946 886 12.218 661.27 12.218 384.004 12.218 106.738 236.946-118 514.214-118s501.996 224.74 501.996 502.004C1016.21 661.27 791.48 886 514.214 886zM514.214 844.166c253.736 0 460.164-206.428 460.164-460.164 0-111.63-39.994-214.086-106.38-293.852-45.878 19.16-154.178 56.744-221.218 76.538-5.718 1.796-6.618 2.084-6.618 25.88 0 19.652 8.088 39.442 15.974 56.192 8.538 18.2 18.668 48.798 22.306 76.252 10.172 11.808 24.02 35.094 32.926 79.478 7.802 39.118 4.166 53.354-1.02 66.714-0.532 1.41-1.104 2.798-1.512 4.188-1.962 9.172 0.734 56.826 7.436 93.798 4.616 25.37-1.186 79.316-36.114 123.944-22.06 28.21-64.262 62.832-141.35 67.652l-42.282-0.04c-75.782-4.782-118.024-39.402-140.084-67.612-34.928-44.63-40.728-98.576-36.112-123.926 6.74-36.99 9.396-84.644 7.476-93.632-0.408-1.572-0.98-2.962-1.552-4.372-5.148-13.36-8.824-27.596-0.98-66.714 8.864-44.384 22.714-67.672 32.926-79.478 3.596-27.452 13.728-58.052 22.306-76.252 6.25-13.318 9.192-31.436 9.192-57.05 0-23.796-0.9-24.084-6.252-25.778-69.326-20.468-179.668-60.34-220.808-78.356-67.692 80.132-108.586 183.57-108.586 296.424C54.05 637.74 260.478 844.166 514.214 844.166zM192.948 54.968c47.104 19.23 141.024 52.73 202.71 70.95 35.87 11.316 35.87 41.526 35.87 65.792 0 20.12-1.388 49.78-13.154 74.862-8.09 17.178-17.324 46.634-19.364 69.694-0.45 5.392-2.982 10.376-7.068 13.93-5.924 5.19-17.976 24.186-25.656 62.504-6.086 30.334-3.512 36.972-1.02 43.386 1.062 2.738 2.084 5.434 2.902 8.478 5.024 18.362-0.574 78.682-6.66 112.14-2.654 14.544 0.694 55.866 27.902 90.674 24.388 31.19 61.318 48.574 108.422 51.576l39.668 0.042c48.37-3.044 85.3-20.428 109.73-51.618 27.208-34.808 30.518-76.13 27.86-90.692-6.046-33.44-11.684-93.758-6.66-112.1 0.86-3.064 1.838-5.76 2.902-8.498 2.494-6.412 5.066-13.052-0.98-43.386-7.678-38.32-19.772-57.316-25.696-62.504-4.044-3.554-6.576-8.538-7.068-13.93-2.002-23.06-11.234-52.516-19.322-69.694-9.274-19.712-19.936-45.96-19.936-74.004 0-24.268 0-54.478 36.236-65.896 59.032-17.444 153.402-49.86 203.242-69.46-83.216-82.398-197.562-133.382-323.594-133.382C389.328-76.168 275.962-26.084 192.948 54.968z"  horiz-adv-x="1024" />

    
    <glyph glyph-name="gengduo" unicode="&#59068;" d="M252.909 411.113c-49.603 0-89.957 38.355-89.957 85.5V649.092c0 47.128 40.354 85.469 89.957 85.469h143.513c49.602 0 89.956-38.341 89.956-85.469v-152.479c0-47.145-40.354-85.5-89.956-85.5H252.909z m0 288.308c-29.412 0-53.341-22.616-53.341-50.415v-152.394c0-27.798 23.929-50.414 53.341-50.414h143.513c29.446 0 53.402 22.616 53.402 50.414V649.007c0 27.798-23.956 50.415-53.402 50.415H252.909zM627.455 33.439c-49.585 0-89.926 38.342-89.926 85.471V271.388c0 47.145 40.341 85.5 89.926 85.5h143.544c49.602 0 89.956-38.355 89.956-85.5V118.91c0-47.129-40.354-85.471-89.956-85.471H627.455z m0 288.278c-29.412 0-53.341-22.611-53.341-50.406v-152.4c0-27.795 23.929-50.406 53.341-50.406h143.544c29.429 0 53.371 22.611 53.371 50.406v152.4c0 27.795-23.942 50.406-53.371 50.406H627.455zM627.548 411.074c-49.585 0-89.926 38.358-89.926 85.508V649.007c0 47.145 40.341 85.5 89.926 85.5h143.144c10.481 0 18.692-7.697 18.692-17.524 0-9.002-7.041-16.503-16.379-17.448l-0.142-0.014-145.315-0.007c-29.361 0-53.249-22.619-53.249-50.422v-152.509c0-27.811 23.915-50.437 53.311-50.437h143.481c29.396 0 53.311 22.626 53.311 50.437V649.16c0 9.671 8.233 17.539 18.354 17.539 10.087 0 18.293-7.868 18.293-17.539v-152.663c0-47.103-40.327-85.423-89.896-85.423H627.548zM252.909 33.439c-49.603 0-89.957 38.342-89.957 85.471V271.388c0 47.145 40.354 85.5 89.957 85.5h143.513c49.602 0 89.956-38.355 89.956-85.5V118.91c0-47.129-40.354-85.471-89.956-85.471H252.909z m0 288.278c-29.429 0-53.371-22.611-53.371-50.406v-152.4c0-27.795 23.942-50.406 53.371-50.406h143.513c29.446 0 53.402 22.611 53.402 50.406v152.4c0 27.795-23.956 50.406-53.402 50.406H252.909z"  horiz-adv-x="1024" />

    
    <glyph glyph-name="bofang" unicode="&#58889;" d="M445.152 67.712c-76.992-44.352-139.904-7.968-139.84 80.896l0.384 444.896c0.064 88.864 63.072 125.152 139.968 80.64l385.12-222.784c76.896-44.48 76.832-117.184-0.128-161.536l-385.504-222.112z"  horiz-adv-x="1024" />

    
    <glyph glyph-name="ziyuan" unicode="&#59083;" d="M632.32 597.333333a42.666667 42.666667 0 0 1-42.666667-42.666666v-341.333334a42.666667 42.666667 0 1 1 85.333334 0V554.666667a42.666667 42.666667 0 0 1-42.666667 42.666666zM391.68 597.333333a42.666667 42.666667 0 0 1-42.666667-42.666666v-341.333334a42.666667 42.666667 0 0 1 85.333334 0V554.666667a42.666667 42.666667 0 0 1-42.666667 42.666666zM512 896a512 512 0 1 1 512-512A512 512 0 0 1 512 896z m0-961.706667A449.706667 449.706667 0 1 0 961.706667 384 450.56 450.56 0 0 0 512-65.706667z"  horiz-adv-x="1024" />

    
    <glyph glyph-name="jianshaoqudiaosuojianshanchushouqixianxing" unicode="&#59670;" d="M142.222222 355.555556h739.555556a28.444444 28.444444 0 0 1 0 56.888888H142.222222a28.444444 28.444444 0 0 1 0-56.888888z"  horiz-adv-x="1024" />

    
    <glyph glyph-name="xihuan" unicode="&#58939;" d="M517.65248 635.95008c5.32992 1.01376 86.2976 82.9952 182.51776 81.16224 113.29024-5.14048 176.81408-102.82496 191.39584-125.86496 71.90016-123.1104 11.53024-240.34304 9.7536-244.29568-1.78176-3.95776-18.36544-40.48896-59.12576-77.6704-6.5792-6.5792-145.05984-131.9424-230.528-212.62848-44.17024-38.7072-79.73376-76.9536-94.37184-76.20096-13.59872-3.38944-58.51136 43.8528-113.024 93.28128-99.5072 90.20928-227.77344 212.25984-227.77344 212.25984s-109.80352 106.496-52.33152 265.50272c17.44896 44.94848 43.1616 77.7216 70.69184 102.82496 54.16448 51.2256 109.30688 63.74912 141.02016 62.7968 101.71904-0.2816 176.44544-82.176 181.77536-81.16736z m-0.6144-46.79168s-28.64128 28.48768-64.96768 53.43232c-28.09344 19.14368-61.14304 34.432-84.00384 37.87264-6.59456 1.46944-97.08544 29.60896-184.49408-89.37472-80.78848-117.87776-19.09248-230.61504-7.936-245.12512 13.0816-29.184 70.36928-77.30176 70.36928-77.30176l271.03744-249.71264s266.97728 247.20384 283.84768 261.74464c92.544 76.84608 95.29344 163.32288 88.38144 211.44064-0.52224 48.55808-55.59808 165.888-170.27072 189.30176-60.13952 10.46528-114.57024-25.1904-127.8464-32.77312-26.42944-14.46912-74.11712-59.50464-74.11712-59.50464z"  horiz-adv-x="1024" />

    
    <glyph glyph-name="sequence" unicode="&#58892;" d="M967.04 336.992a31.456 31.456 0 0 1-36.384-25.152c-36.928-207.936-219.424-358.848-434.4-358.848-214.528 0-396.96 150.912-433.824 358.816a31.424 31.424 0 0 1-36.384 25.184 31.104 31.104 0 0 1-25.536-35.84c42.144-237.632 250.656-410.112 496.256-410.112 245.088 0 453.6 172.48 495.84 410.08a31.072 31.072 0 0 1-25.536 35.872zM25.984 450.08a31.424 31.424 0 0 1 36.384 25.152C99.296 683.168 281.792 834.08 496.768 834.08c214.528 0 396.96-150.912 433.824-358.816a31.36 31.36 0 0 1 36.384-25.184 31.136 31.136 0 0 1 25.568 35.84C950.4 723.552 741.888 896.032 496.288 896.032 251.2 896.032 42.688 723.552 0.448 485.952a30.976 30.976 0 0 1 25.536-35.872z m642.784 107.52l61.888-41.824-61.888-41.856v83.68z m-45.6-170.176a30.432 30.432 0 0 1 31.776 1.6l148.704 100.608c8.64 5.824 13.792 15.68 13.792 26.144s-5.152 20.32-13.792 26.144l-148.704 100.544c-9.504 6.432-21.728 7.04-31.776 1.536s-16.352-16.096-16.352-27.712v-70.112H310.304a93.152 93.152 0 0 1-93.088-93.088v-219.136a93.184 93.184 0 0 1 93.088-93.088h356.864a93.184 93.184 0 0 1 93.088 93.088v39.744a31.04 31.04 0 1 1-62.08 0v-39.744a31.04 31.04 0 0 0-31.04-31.04H310.272a31.04 31.04 0 0 0-31.04 31.04v219.136a31.04 31.04 0 0 0 31.04 31.04h296.512v-68.992c0-11.584 6.304-22.24 16.352-27.712z"  horiz-adv-x="1024" />

    
    <glyph glyph-name="stop" unicode="&#59158;" d="M213.333333 682.666667m42.666667 0l512 0q42.666667 0 42.666667-42.666667l0-512q0-42.666667-42.666667-42.666667l-512 0q-42.666667 0-42.666667 42.666667l0 512q0 42.666667 42.666667 42.666667Z"  horiz-adv-x="1024" />

    
    <glyph glyph-name="qingchu" unicode="&#58928;" d="M504.454737 895.784421C225.765053 895.784421 0.458105 670.477474 0.458105 391.814737c0-278.662737 225.306947-503.969684 503.996632-503.969684 278.689684 0 503.996632 225.28 503.996631 503.969684C1008.451368 670.477474 783.144421 895.784421 504.454737 895.784421z m0-948.682105c-243.092211 0-444.685474 201.593263-444.685474 444.685473 0 243.119158 201.566316 444.712421 444.685474 444.712422 243.092211 0 444.685474-201.593263 444.685474-444.712422 0-243.065263-201.566316-444.685474-444.685474-444.685473zM296.416348 218.490313m19.054667 19.054667l342.984005 342.984005q19.054667 19.054667 38.109334 0l0 0q19.054667-19.054667 0-38.109334l-342.984005-342.984005q-19.054667-19.054667-38.109334 0l0 0q-19.054667 19.054667 0 38.109334ZM715.636126 218.483228m-19.054666 19.054667l-342.984005 342.984005q-19.054667 19.054667-38.109334 0l0 0q-19.054667-19.054667 0-38.109334l342.984005-342.984005q19.054667-19.054667 38.109334 0l0 0q19.054667 19.054667 0 38.109334Z"  horiz-adv-x="1024" />

    
    <glyph glyph-name="shanchu-copy" unicode="&#58880;" d="M799.19978825 21.600483550000035c0-34.40106003-28.00086282-62.4006283-62.39933376-62.4006283H287.19954551c-34.39976549 0-62.39933377 28.00086282-62.39933376 62.4006283V684.00018267h574.3995765v-662.39969912zM349.60017383 795.99975031c0 7.20022187 5.60017257 12.80039443 12.80039444 12.80039444H662.39945639c7.20022187 0 12.80039443-5.60017257 12.80039444-12.80039444v-37.59986409H349.60017383V795.99975031z m636.8002048-37.59986409H749.59955437V795.99975031c0 48.00147911-39.19861886 87.20009797-87.20009798 87.20009799H362.40056827c-48.00147911 0-87.20009797-39.19861886-87.20009799-87.20009799v-37.59986409h-237.59955437c-20.80064095 0-37.60115863-16.80051769-37.60115863-37.59986409s16.80051769-37.5998641 37.59986409-37.5998641h112.00086218v-661.59967448c0-76.00104738 61.59930912-137.6003565 137.59906196-137.6003565h449.60090898c75.99975285 0 137.59906196 61.59930912 137.59906196 137.6003565V684.00018267h112.00086218c20.7993464 0 37.5998641 16.79922315 37.59986409 37.5998641s-16.80051769 36.79983945-37.59986409 36.79983945zM512 71.99944755000001c20.80064095 0 37.5998641 16.80051769 37.5998641 37.60115864v399.99938053c0 20.80064095-16.79922315 37.5998641-37.5998641 37.59986411s-37.5998641-16.79922315-37.5998641-37.59986411v-399.99938053c0-20.80064095 16.79922315-37.60115863 37.5998641-37.60115864m-175.20022061 0c20.80064095 0 37.5998641 16.80051769 37.59986411 37.60115864v399.99938053c0 20.80064095-16.79922315 37.5998641-37.59986411 37.59986411s-37.5998641-16.79922315-37.59986409-37.59986411v-399.99938053c0.80002465-20.80064095 17.60054235-37.60115863 37.59986409-37.60115864m350.40044122 0c20.7993464 0 37.5998641 16.80051769 37.59986409 37.60115864v399.99938053c0 20.80064095-16.80051769 37.5998641-37.59986409 37.59986411s-37.5998641-16.79922315-37.59986411-37.59986411v-399.99938053c0-20.80064095 16.79922315-37.60115863 37.59986411-37.60115864"  horiz-adv-x="1024" />

    
    <glyph glyph-name="fanhui" unicode="&#58971;" d="M736-64c-9 0-18.1 3.2-25 9.6L263 360.8c-13.8 12.8-13.8 33.6 0 46.4L711 822.4c13.8 12.8 36.2 12.8 50 0 13.8-12.8 13.8-33.6 0-46.4L338 384l423-392c13.8-12.8 13.8-33.6 0-46.4-6.9-6.4-16-9.6-25-9.6z"  horiz-adv-x="1024" />

    
    <glyph glyph-name="zantingtingzhi" unicode="&#58947;" d="M720.896 800.768c-47.616 0-89.6-41.472-89.6-89.088v-655.36c0-47.616 41.984-89.088 89.6-89.088s89.6 41.472 89.6 89.088V711.68c-0.512 47.616-41.984 89.088-89.6 89.088z m-417.792 0c-47.616 0-89.6-41.472-89.6-89.088v-655.36c0-47.616 41.984-89.088 89.6-89.088s89.6 41.472 89.6 89.088V711.68c0 47.616-41.984 89.088-89.6 89.088z"  horiz-adv-x="1024" />

    
    <glyph glyph-name="xiayiqu" unicode="&#59047;" d="M960 384c0-247.424-200.576-448-448-448S64 136.576 64 384 264.576 832 512 832s448-200.576 448-448z m-64 0c0 212.096-171.904 384-384 384S128 596.096 128 384s171.904-384 384-384 384 171.904 384 384z m-288-50.88l-206.72-135.168a32 32 0 0 0-49.504 26.784v320a32 32 0 0 0 49.504 26.784L608 436.352V576h64v-384h-64v141.12z m-192.224 152.448v-201.696l154.24 100.864-154.24 100.832z"  horiz-adv-x="1024" />

    
    <glyph glyph-name="shangyiqu" unicode="&#59048;" d="M960 384c0-247.424-200.576-448-448-448S64 136.576 64 384 264.576 832 512 832s448-200.576 448-448z m-64 0c0 212.096-171.904 384-384 384S128 596.096 128 384s171.904-384 384-384 384 171.904 384 384z m-478.656-40.416V192h-64V576h64v-150.112l222.72 145.6a32 32 0 0 0 49.536-26.752v-320a32 32 0 0 0-49.536-26.784l-222.72 145.6z m54.016 41.152l154.24-100.864v201.696l-154.24-100.832z"  horiz-adv-x="1024" />

    
    <glyph glyph-name="addApp" unicode="&#58885;" d="M487.158 773.462v-365.866l-362.14-0.001v-49.676l362.14-0.001v-360.898l49.678-0.001v360.901l363.381-0.001v49.678l-363.381-0.001v365.869z"  horiz-adv-x="1024" />

    
    <glyph glyph-name="shanchu1" unicode="&#58881;" d="M512 431.734154L337.053538 606.72a33.752615 33.752615 0 1 1-47.734153-47.734154L464.226462 384l-174.985847-174.946462a33.752615 33.752615 0 1 1 47.734154-47.734153L512 336.22646199999997l174.946462-174.985847a33.752615 33.752615 0 1 1 47.734153 47.734154L559.773538 384l174.985847 174.946462a33.752615 33.752615 0 1 1-47.734154 47.734153L512 431.773538z"  horiz-adv-x="1024" />

    
    <glyph glyph-name="icon_loop" unicode="&#59210;" d="M918.198857 438.198857c-19.602286 0-32.658286-13.056-32.658286-32.658286v-88.137142a201.362286 201.362286 0 0 0-202.422857-202.459429H176.969143L219.428571 154.112c6.546286 6.546286 13.056 16.347429 13.056 26.148571a36.205714 36.205714 0 0 1-35.913142 35.913143c-9.801143 0-22.857143-3.291429-29.403429-9.801143l-110.994286-101.229714c-16.347429-13.056-13.056-35.913143 0-49.005714l110.994286-97.938286c6.546286-6.509714 19.602286-13.056 29.403429-13.056 19.602286 0 35.913143 13.056 39.168 32.658286 0 13.056-6.509714 22.857143-16.310858 29.366857l-49.005714 45.714286h509.44c150.162286 0 270.994286 120.832 270.994286 264.521143v88.137142c0 19.602286-13.056 32.658286-32.658286 32.658286zM69.229714 356.571429c19.602286 0 32.658286 13.056 32.658286 32.658285v91.428572A209.188571 209.188571 0 0 0 304.274286 689.627429h506.148571L768 650.459429c-6.546286-6.546286-13.056-16.347429-13.056-26.148572a36.205714 36.205714 0 0 1 35.913143-35.913143c9.801143 0 22.857143 3.291429 29.403428 9.801143l107.739429 101.229714c16.310857 13.056 13.056 35.913143 0 49.005715l-111.030857 97.938285C810.459429 852.845714 797.403429 859.428571 787.602286 859.428571c-19.602286 0-35.913143-13.056-39.204572-32.658285 0-13.056 6.546286-22.857143 16.347429-29.366857l48.969143-45.714286H307.565714C157.44 751.689143 36.571429 630.857143 36.571429 477.403429v-88.173715c0-19.602286 13.056-32.658286 32.658285-32.658285zM526.372571 239.030857V565.540571h-49.005714l-81.627428-58.770285 16.347428-42.422857 62.025143 42.422857v-267.739429z"  horiz-adv-x="1024" />

    
    <glyph glyph-name="bofang1" unicode="&#58911;" d="M512 896C229.248 896 0 666.752 0 384s229.248-512 512-512 512 229.248 512 512S794.752 896 512 896zM512-64c-247.424 0-448 200.576-448 448s200.576 448 448 448 448-200.576 448-448S759.424-64 512-64zM413.12304687 581.75390625L709.75390625 384 413.12304687 186.24609375Z"  horiz-adv-x="1024" />

    
    <glyph glyph-name="down2" unicode="&#58882;" d="M936.486 559.0930000000001c13.839 14.39000001 13.393 37.274-0.999 51.113-14.39 13.84-37.274 13.393-51.113-0.999L513.98399999 235.42999999999995 138.417 607.625c-14.188 14.068-37.092 13.97-51.162-0.219-14.06700001-14.187-13.969-37.092 0.22-51.161L486.623 160.67999999999995c0.612-0.621 1.41-0.767 2.02-1.34 0.136-0.136 0.174-0.32 0.32-0.464l0.008-0.007c14.174-14.054 37.055-13.954 51.11 0.22l395.594 399.187c0.276 0.266 0.546 0.54 0.81 0.817z"  horiz-adv-x="1024" />

    
    <glyph glyph-name="huore" unicode="&#58920;" d="M526.653624 320.76689c-33.141911 0-49.712867-24.248832-49.712867-72.691259s16.570956-71.807475 49.712867-71.807475 48.663373 23.80694 48.663374 71.807475-16.460483 72.691259-48.663374 72.691259zM886.740492 298.175154c-1.712332 184.269028-152.894685 403.226589-191.615485 441.45026a113.345337 113.345337 0 0 0-1.933278-144.885389 28.778226 28.778226 0 0 0-17.28903-11.489196l-8.451188 24.248832C571.560914 877.385293 443.577899 896 443.577899 896a676.371176 676.371176 0 0 0-82.854778-285.738513A365.113391 365.113391 0 0 0 269.251445 504.925445a86.500389 86.500389 0 0 1 0 48.884319 171.233209 171.233209 0 0 1-38.665563 68.54852s19.222309-39.162692-38.665564-117.432839a396.984863 396.984863 0 0 1-56.230776-206.750291c0-12.317744-1.712332-24.856434-1.712332-37.61607a377.431135 377.431135 0 1 1 754.586087 0 359.42403 359.42403 0 0 1-1.712332 37.61607z m-483.153832-148.586237h-41.979755v86.555626H286.31953v-86.500389h-41.095971V347.501365h41.095971v-78.712039h73.961699V347.501365h43.250194z m123.729802-2.154224a88.378431 88.378431 0 0 0-94.73063 99.701917c1.933278 67.719972 33.528567 102.298033 93.902083 103.62371s91.029783-35.019953 93.239244-103.62371q-3.258955-97.547693-93.239244-99.701917z m265.577184 166.759051h-57.722162v-164.604827h-43.250195v164.604827H634.530546v33.141912h158.307864z"  horiz-adv-x="1024" />

    
    <glyph glyph-name="xihuanfill" unicode="&#58929;" d="M512-51.2l-88.064 79.616C183.04 240.2048 25.6 381.44 25.6 565.8368a274.3552 274.3552 0 0 0 81.5104 198.2464A279.6288 279.6288 0 0 0 307.2 844.8a318.1056 318.1056 0 0 0 204.8-77.3376 306.048 306.048 0 0 0 204.8 76.0832 279.6288 279.6288 0 0 0 200.0896-80.7168A274.3552 274.3552 0 0 0 998.4 564.5568c0-182.0928-157.44-323.3536-396.032-535.1168l-2.304-2.2784L512-51.2z"  horiz-adv-x="1024" />

    


  </font>
</defs>
</svg>
